<mxfile host="65bd71144e">
    <diagram id="YQu_0aeRExn7r-92uJhK" name="Page-1">
        <mxGraphModel dx="1396" dy="624" grid="0" gridSize="10" guides="1" tooltips="1" connect="1" arrows="1" fold="1" page="0" pageScale="1" pageWidth="850" pageHeight="1100" math="0" shadow="0">
            <root>
                <mxCell id="0"/>
                <mxCell id="1" parent="0"/>
                <mxCell id="1642eGbjVczJc0algu5P-20" value="getNormalisedRate" style="edgeStyle=orthogonalEdgeStyle;rounded=0;orthogonalLoop=1;jettySize=auto;html=1;exitX=0;exitY=0.5;exitDx=0;exitDy=0;entryX=1;entryY=0.5;entryDx=0;entryDy=0;startArrow=classic;startFill=0;endArrow=none;endFill=0;" parent="1" source="1642eGbjVczJc0algu5P-4" target="1642eGbjVczJc0algu5P-7" edge="1">
                    <mxGeometry relative="1" as="geometry"/>
                </mxCell>
                <mxCell id="1642eGbjVczJc0algu5P-25" value="issue&lt;br&gt;open&lt;br&gt;close&lt;br&gt;settle&lt;br&gt;redeem" style="edgeStyle=orthogonalEdgeStyle;rounded=0;orthogonalLoop=1;jettySize=auto;html=1;exitX=0.5;exitY=1;exitDx=0;exitDy=0;entryX=0.5;entryY=0;entryDx=0;entryDy=0;startArrow=classic;startFill=0;" parent="1" source="1642eGbjVczJc0algu5P-4" target="1642eGbjVczJc0algu5P-24" edge="1">
                    <mxGeometry x="0.0932" relative="1" as="geometry">
                        <Array as="points">
                            <mxPoint x="265" y="420"/>
                        </Array>
                        <mxPoint as="offset"/>
                    </mxGeometry>
                </mxCell>
                <mxCell id="47OiKXawKAYpL66iiN4a-5" style="edgeStyle=orthogonalEdgeStyle;rounded=0;orthogonalLoop=1;jettySize=auto;html=1;entryX=0.5;entryY=0;entryDx=0;entryDy=0;" parent="1" target="47OiKXawKAYpL66iiN4a-4" edge="1">
                    <mxGeometry relative="1" as="geometry">
                        <Array as="points">
                            <mxPoint x="420" y="420"/>
                            <mxPoint x="420" y="440"/>
                            <mxPoint x="575" y="440"/>
                        </Array>
                        <mxPoint x="420" y="420" as="sourcePoint"/>
                    </mxGeometry>
                </mxCell>
                <mxCell id="x4TnTmUyTVXbQRC7-qxB-1" style="edgeStyle=orthogonalEdgeStyle;rounded=0;orthogonalLoop=1;jettySize=auto;html=1;exitX=1;exitY=0.5;exitDx=0;exitDy=0;startArrow=classic;startFill=0;entryX=0;entryY=0.5;entryDx=0;entryDy=0;" parent="1" source="1642eGbjVczJc0algu5P-4" target="x4TnTmUyTVXbQRC7-qxB-2" edge="1">
                    <mxGeometry relative="1" as="geometry">
                        <mxPoint x="729" y="396" as="targetPoint"/>
                        <mxPoint x="544" y="396" as="sourcePoint"/>
                    </mxGeometry>
                </mxCell>
                <mxCell id="x4TnTmUyTVXbQRC7-qxB-3" value="request()&lt;br&gt;getPortfolioValues()&lt;br&gt;delta, liabilities&lt;br&gt;resetEphemeralValues()" style="edgeLabel;html=1;align=center;verticalAlign=middle;resizable=0;points=[];" parent="x4TnTmUyTVXbQRC7-qxB-1" connectable="0" vertex="1">
                    <mxGeometry x="0.13" y="1" relative="1" as="geometry">
                        <mxPoint x="-18" y="-6" as="offset"/>
                    </mxGeometry>
                </mxCell>
                <mxCell id="1642eGbjVczJc0algu5P-4" value="Dynamic Hedging Vault (Liquidity Pool)" style="rounded=1;whiteSpace=wrap;html=1;" parent="1" vertex="1">
                    <mxGeometry x="360" y="360" width="120" height="60" as="geometry"/>
                </mxCell>
                <mxCell id="1642eGbjVczJc0algu5P-5" value="OptionRegistry&lt;br&gt;(options writer)&lt;br&gt;(collateral held in MarginPool via GammaController)" style="rounded=1;whiteSpace=wrap;html=1;" parent="1" vertex="1">
                    <mxGeometry x="200" y="510" width="130" height="90" as="geometry"/>
                </mxCell>
                <mxCell id="1642eGbjVczJc0algu5P-7" value="Price Feed" style="rounded=1;whiteSpace=wrap;html=1;" parent="1" vertex="1">
                    <mxGeometry x="98" y="362" width="120" height="60" as="geometry"/>
                </mxCell>
                <mxCell id="1642eGbjVczJc0algu5P-16" value="deposit&lt;br&gt;redeem&lt;br&gt;initiateWithdraw&lt;br&gt;completeWIthdraw&lt;br&gt;&lt;br&gt;calculated&lt;br&gt;via Accounting.sol" style="edgeStyle=orthogonalEdgeStyle;rounded=0;orthogonalLoop=1;jettySize=auto;html=1;exitX=0.5;exitY=1;exitDx=0;exitDy=0;fillColor=#1ba1e2;strokeColor=#006EAF;" parent="1" source="1642eGbjVczJc0algu5P-17" target="1642eGbjVczJc0algu5P-4" edge="1">
                    <mxGeometry x="-0.046" relative="1" as="geometry">
                        <mxPoint x="420" y="250" as="sourcePoint"/>
                        <mxPoint as="offset"/>
                    </mxGeometry>
                </mxCell>
                <mxCell id="1642eGbjVczJc0algu5P-17" value="Liquidity Provider" style="ellipse;whiteSpace=wrap;html=1;aspect=fixed;fillColor=#a20025;fontColor=#ffffff;strokeColor=#6F0000;" parent="1" vertex="1">
                    <mxGeometry x="380" y="41" width="80" height="80" as="geometry"/>
                </mxCell>
                <mxCell id="1642eGbjVczJc0algu5P-19" value="executeOrder&lt;br&gt;executeBuyBackOrder&lt;br&gt;executeStrangle" style="edgeStyle=orthogonalEdgeStyle;rounded=0;orthogonalLoop=1;jettySize=auto;html=1;entryX=0.5;entryY=0;entryDx=0;entryDy=0;" parent="1" source="1642eGbjVczJc0algu5P-18" target="hZv7sSVvZLK3GC8TUpPU-1" edge="1">
                    <mxGeometry relative="1" as="geometry">
                        <Array as="points">
                            <mxPoint x="540" y="135"/>
                        </Array>
                        <mxPoint x="540" y="330" as="targetPoint"/>
                    </mxGeometry>
                </mxCell>
                <mxCell id="1642eGbjVczJc0algu5P-18" value="Options buyer / structured product / market maker" style="ellipse;whiteSpace=wrap;html=1;aspect=fixed;fillColor=#a20025;fontColor=#ffffff;strokeColor=#6F0000;" parent="1" vertex="1">
                    <mxGeometry x="490" y="35" width="110" height="110" as="geometry"/>
                </mxCell>
                <mxCell id="1642eGbjVczJc0algu5P-23" value="getVolatilitySkew" style="edgeStyle=orthogonalEdgeStyle;rounded=0;orthogonalLoop=1;jettySize=auto;html=1;entryX=0.25;entryY=0;entryDx=0;entryDy=0;" parent="1" target="1642eGbjVczJc0algu5P-4" edge="1">
                    <mxGeometry x="-0.4171" relative="1" as="geometry">
                        <Array as="points">
                            <mxPoint x="260" y="260"/>
                            <mxPoint x="390" y="260"/>
                        </Array>
                        <mxPoint as="offset"/>
                        <mxPoint x="260" y="250" as="sourcePoint"/>
                    </mxGeometry>
                </mxCell>
                <mxCell id="1642eGbjVczJc0algu5P-24" value="GammaController" style="rounded=1;whiteSpace=wrap;html=1;" parent="1" vertex="1">
                    <mxGeometry x="205" y="640" width="120" height="60" as="geometry"/>
                </mxCell>
                <mxCell id="1642eGbjVczJc0algu5P-27" style="edgeStyle=orthogonalEdgeStyle;rounded=0;orthogonalLoop=1;jettySize=auto;html=1;entryX=0;entryY=0;entryDx=0;entryDy=0;" parent="1" source="1642eGbjVczJc0algu5P-26" target="1642eGbjVczJc0algu5P-4" edge="1">
                    <mxGeometry relative="1" as="geometry"/>
                </mxCell>
                <mxCell id="1642eGbjVczJc0algu5P-28" value="settle&lt;br&gt;rebalancePortfolioDelta&lt;br&gt;executeEpochCalculation&lt;br&gt;pauseTradingAndRequest&lt;br&gt;pause/unpause" style="edgeLabel;html=1;align=center;verticalAlign=middle;resizable=0;points=[];" parent="1642eGbjVczJc0algu5P-27" vertex="1" connectable="0">
                    <mxGeometry x="-0.1799" y="2" relative="1" as="geometry">
                        <mxPoint as="offset"/>
                    </mxGeometry>
                </mxCell>
                <mxCell id="1642eGbjVczJc0algu5P-26" value="Manager" style="ellipse;whiteSpace=wrap;html=1;aspect=fixed;fillColor=#0050ef;fontColor=#ffffff;strokeColor=#001DBC;" parent="1" vertex="1">
                    <mxGeometry x="115" y="270" width="80" height="80" as="geometry"/>
                </mxCell>
                <mxCell id="47OiKXawKAYpL66iiN4a-8" value="" style="edgeStyle=orthogonalEdgeStyle;rounded=0;orthogonalLoop=1;jettySize=auto;html=1;" parent="1" target="1642eGbjVczJc0algu5P-4" edge="1">
                    <mxGeometry relative="1" as="geometry">
                        <mxPoint x="420" y="490.0000000000002" as="sourcePoint"/>
                    </mxGeometry>
                </mxCell>
                <mxCell id="47OiKXawKAYpL66iiN4a-2" value="" style="endArrow=classic;html=1;rounded=0;exitX=0.5;exitY=1;exitDx=0;exitDy=0;entryX=0.5;entryY=0;entryDx=0;entryDy=0;" parent="1" source="1642eGbjVczJc0algu5P-4" edge="1">
                    <mxGeometry width="50" height="50" relative="1" as="geometry">
                        <mxPoint x="360" y="430" as="sourcePoint"/>
                        <mxPoint x="420" y="490.0000000000002" as="targetPoint"/>
                    </mxGeometry>
                </mxCell>
                <mxCell id="47OiKXawKAYpL66iiN4a-4" value="Hedging Reactor 2&lt;br&gt;Refer to Diagram C&lt;br&gt;e.g. Perp futures" style="rounded=1;whiteSpace=wrap;html=1;" parent="1" vertex="1">
                    <mxGeometry x="355" y="490" width="130" height="90" as="geometry"/>
                </mxCell>
                <mxCell id="jicTCFTSVg2uyOjH9K08-5" value="&lt;b&gt;&lt;font style=&quot;font-size: 21px&quot;&gt;Diagram A&lt;/font&gt;&lt;/b&gt;" style="text;html=1;align=center;verticalAlign=middle;resizable=0;points=[];autosize=1;strokeColor=none;fillColor=none;strokeWidth=2;" parent="1" vertex="1">
                    <mxGeometry x="-134" y="44" width="120" height="20" as="geometry"/>
                </mxCell>
                <mxCell id="jicTCFTSVg2uyOjH9K08-6" value="&lt;b&gt;&lt;font style=&quot;font-size: 21px&quot;&gt;Diagram D&lt;/font&gt;&lt;/b&gt;" style="text;html=1;align=center;verticalAlign=middle;resizable=0;points=[];autosize=1;strokeColor=none;fillColor=none;strokeWidth=2;" parent="1" vertex="1">
                    <mxGeometry x="75" y="1280" width="120" height="20" as="geometry"/>
                </mxCell>
                <mxCell id="8LTQt0oXINz2_zXnDLhr-8" value="Deposit Stables into money market then borrow underlying&lt;br&gt;and sell for stables" style="edgeStyle=orthogonalEdgeStyle;rounded=0;orthogonalLoop=1;jettySize=auto;html=1;exitX=0.5;exitY=1;exitDx=0;exitDy=0;entryX=0.5;entryY=0;entryDx=0;entryDy=0;" parent="1" source="8LTQt0oXINz2_zXnDLhr-1" target="8LTQt0oXINz2_zXnDLhr-9" edge="1">
                    <mxGeometry relative="1" as="geometry">
                        <mxPoint x="70" y="1580" as="targetPoint"/>
                    </mxGeometry>
                </mxCell>
                <mxCell id="8LTQt0oXINz2_zXnDLhr-1" value="Hedging Reactor 3 - Money market shorts" style="rounded=1;whiteSpace=wrap;html=1;" parent="1" vertex="1">
                    <mxGeometry x="5" y="1480" width="260" height="60" as="geometry"/>
                </mxCell>
                <mxCell id="8LTQt0oXINz2_zXnDLhr-3" value="hedge(delta)" style="edgeStyle=orthogonalEdgeStyle;rounded=0;orthogonalLoop=1;jettySize=auto;html=1;exitX=0.25;exitY=1;exitDx=0;exitDy=0;" parent="1" source="8LTQt0oXINz2_zXnDLhr-2" edge="1">
                    <mxGeometry relative="1" as="geometry">
                        <mxPoint x="5" y="1480" as="targetPoint"/>
                        <Array as="points">
                            <mxPoint x="-5" y="1400"/>
                            <mxPoint x="-5" y="1480"/>
                        </Array>
                    </mxGeometry>
                </mxCell>
                <mxCell id="8LTQt0oXINz2_zXnDLhr-2" value="Dynamic Hedging Vault (Liquidity Pool)" style="rounded=1;whiteSpace=wrap;html=1;" parent="1" vertex="1">
                    <mxGeometry x="75" y="1340" width="120" height="60" as="geometry"/>
                </mxCell>
                <mxCell id="8LTQt0oXINz2_zXnDLhr-4" value="withdraw(amount)" style="edgeStyle=orthogonalEdgeStyle;rounded=0;orthogonalLoop=1;jettySize=auto;html=1;exitX=0.25;exitY=1;exitDx=0;exitDy=0;entryX=1;entryY=0;entryDx=0;entryDy=0;" parent="1" target="8LTQt0oXINz2_zXnDLhr-1" edge="1">
                    <mxGeometry relative="1" as="geometry">
                        <mxPoint x="174.5" y="1400" as="sourcePoint"/>
                        <mxPoint x="174.5" y="1480" as="targetPoint"/>
                        <Array as="points">
                            <mxPoint x="275" y="1400"/>
                            <mxPoint x="275" y="1480"/>
                        </Array>
                    </mxGeometry>
                </mxCell>
                <mxCell id="8LTQt0oXINz2_zXnDLhr-6" value="update()&lt;br&gt;updates the vault with the &lt;br&gt;hedging reactor's holdings and delta&amp;nbsp;&lt;br&gt;this can also act as a request for collateral &lt;br&gt;from the hedging reactor to the vault" style="endArrow=classic;startArrow=classic;html=1;rounded=0;entryX=0.5;entryY=1;entryDx=0;entryDy=0;exitX=0.5;exitY=0;exitDx=0;exitDy=0;" parent="1" source="8LTQt0oXINz2_zXnDLhr-1" target="8LTQt0oXINz2_zXnDLhr-2" edge="1">
                    <mxGeometry y="10" width="50" height="50" relative="1" as="geometry">
                        <mxPoint x="35" y="1350" as="sourcePoint"/>
                        <mxPoint x="85" y="1300" as="targetPoint"/>
                        <mxPoint as="offset"/>
                    </mxGeometry>
                </mxCell>
                <mxCell id="8LTQt0oXINz2_zXnDLhr-9" value="Money Market (e.g. Euler, Compound, Aave)" style="rounded=1;whiteSpace=wrap;html=1;" parent="1" vertex="1">
                    <mxGeometry x="5" y="1600" width="260" height="60" as="geometry"/>
                </mxCell>
                <mxCell id="8LTQt0oXINz2_zXnDLhr-11" value="Variables to manage here include the LTV of the borrow (if underlying goes down then its ok &lt;br&gt;but if underlying goes up then more collateral is required this can be handled during the update function where funds can be transferred&lt;br&gt;between the vault and reactor (like a request for collateral)" style="text;html=1;align=center;verticalAlign=middle;resizable=0;points=[];autosize=1;strokeColor=none;fillColor=none;" parent="1" vertex="1">
                    <mxGeometry x="-230" y="1660" width="730" height="50" as="geometry"/>
                </mxCell>
                <mxCell id="8LTQt0oXINz2_zXnDLhr-12" value="hedge is called by the vault and tells&lt;br&gt;how much to hedge, the engine will then&lt;br&gt;take some collateral to do the hedge.&lt;br&gt;The dynamic hedging vault is tracking&lt;br&gt;reactorDebt and reactorDelta of the reactor" style="text;html=1;align=center;verticalAlign=middle;resizable=0;points=[];autosize=1;strokeColor=none;fillColor=none;" parent="1" vertex="1">
                    <mxGeometry x="-255" y="1350" width="240" height="80" as="geometry"/>
                </mxCell>
                <mxCell id="8LTQt0oXINz2_zXnDLhr-14" value="&lt;b&gt;&lt;font style=&quot;font-size: 21px&quot;&gt;Diagram B&lt;/font&gt;&lt;/b&gt;" style="text;html=1;align=center;verticalAlign=middle;resizable=0;points=[];autosize=1;strokeColor=none;fillColor=none;strokeWidth=2;" parent="1" vertex="1">
                    <mxGeometry x="85" y="750" width="120" height="20" as="geometry"/>
                </mxCell>
                <mxCell id="8LTQt0oXINz2_zXnDLhr-16" value="Hedging Reactor 1 - Squeeth" style="rounded=1;whiteSpace=wrap;html=1;" parent="1" vertex="1">
                    <mxGeometry x="15" y="950" width="260" height="60" as="geometry"/>
                </mxCell>
                <mxCell id="8LTQt0oXINz2_zXnDLhr-17" value="hedge(delta)" style="edgeStyle=orthogonalEdgeStyle;rounded=0;orthogonalLoop=1;jettySize=auto;html=1;exitX=0.25;exitY=1;exitDx=0;exitDy=0;" parent="1" source="8LTQt0oXINz2_zXnDLhr-18" edge="1">
                    <mxGeometry relative="1" as="geometry">
                        <mxPoint x="15" y="950" as="targetPoint"/>
                        <Array as="points">
                            <mxPoint x="5" y="870"/>
                            <mxPoint x="5" y="950"/>
                        </Array>
                    </mxGeometry>
                </mxCell>
                <mxCell id="8LTQt0oXINz2_zXnDLhr-18" value="Dynamic Hedging Vault (Liquidity Pool)" style="rounded=1;whiteSpace=wrap;html=1;" parent="1" vertex="1">
                    <mxGeometry x="85" y="810" width="120" height="60" as="geometry"/>
                </mxCell>
                <mxCell id="8LTQt0oXINz2_zXnDLhr-19" value="withdraw(amount)" style="edgeStyle=orthogonalEdgeStyle;rounded=0;orthogonalLoop=1;jettySize=auto;html=1;exitX=0.25;exitY=1;exitDx=0;exitDy=0;entryX=1;entryY=0;entryDx=0;entryDy=0;" parent="1" target="8LTQt0oXINz2_zXnDLhr-16" edge="1">
                    <mxGeometry relative="1" as="geometry">
                        <mxPoint x="184.5" y="870" as="sourcePoint"/>
                        <mxPoint x="184.5" y="950" as="targetPoint"/>
                        <Array as="points">
                            <mxPoint x="285" y="870"/>
                            <mxPoint x="285" y="950"/>
                        </Array>
                    </mxGeometry>
                </mxCell>
                <mxCell id="8LTQt0oXINz2_zXnDLhr-20" value="update()&lt;br&gt;updates the vault with the &lt;br&gt;hedging reactor's holdings and delta&amp;nbsp;&lt;br&gt;this can also act as a request for collateral &lt;br&gt;from the hedging reactor to the vault" style="endArrow=classic;startArrow=classic;html=1;rounded=0;entryX=0.5;entryY=1;entryDx=0;entryDy=0;exitX=0.5;exitY=0;exitDx=0;exitDy=0;" parent="1" source="8LTQt0oXINz2_zXnDLhr-16" target="8LTQt0oXINz2_zXnDLhr-18" edge="1">
                    <mxGeometry width="50" height="50" relative="1" as="geometry">
                        <mxPoint x="45" y="820" as="sourcePoint"/>
                        <mxPoint x="95" y="770" as="targetPoint"/>
                        <mxPoint as="offset"/>
                    </mxGeometry>
                </mxCell>
                <mxCell id="8LTQt0oXINz2_zXnDLhr-21" value="Squeeth" style="rounded=1;whiteSpace=wrap;html=1;" parent="1" vertex="1">
                    <mxGeometry x="15" y="1070" width="260" height="60" as="geometry"/>
                </mxCell>
                <mxCell id="8LTQt0oXINz2_zXnDLhr-22" value="Variables to manage here include the delta, the amount of SQTH held as this can change as a result of funding.&lt;br&gt;When shorting, the health factor needs to also be tracked to make sure that the vault is safe from liquidation." style="text;html=1;align=center;verticalAlign=middle;resizable=0;points=[];autosize=1;strokeColor=none;fillColor=none;" parent="1" vertex="1">
                    <mxGeometry x="-160" y="1140" width="610" height="30" as="geometry"/>
                </mxCell>
                <mxCell id="8LTQt0oXINz2_zXnDLhr-23" value="hedge is called by the vault and tells&lt;br&gt;how much to hedge, the engine will then&lt;br&gt;take some collateral to do the hedge.&lt;br&gt;The dynamic hedging vault is tracking&lt;br&gt;reactorDebt and reactorDelta of the reactor" style="text;html=1;align=center;verticalAlign=middle;resizable=0;points=[];autosize=1;strokeColor=none;fillColor=none;" parent="1" vertex="1">
                    <mxGeometry x="-245" y="820" width="240" height="80" as="geometry"/>
                </mxCell>
                <mxCell id="8LTQt0oXINz2_zXnDLhr-27" value="&lt;b&gt;&lt;font style=&quot;font-size: 21px&quot;&gt;Diagram C&lt;/font&gt;&lt;/b&gt;" style="text;html=1;align=center;verticalAlign=middle;resizable=0;points=[];autosize=1;strokeColor=none;fillColor=none;strokeWidth=2;" parent="1" vertex="1">
                    <mxGeometry x="835" y="750" width="120" height="20" as="geometry"/>
                </mxCell>
                <mxCell id="8LTQt0oXINz2_zXnDLhr-28" value="If going long&lt;br&gt;purchase long ETH perp" style="edgeStyle=orthogonalEdgeStyle;rounded=0;orthogonalLoop=1;jettySize=auto;html=1;exitX=0.25;exitY=1;exitDx=0;exitDy=0;entryX=0.25;entryY=0;entryDx=0;entryDy=0;" parent="1" source="8LTQt0oXINz2_zXnDLhr-29" target="8LTQt0oXINz2_zXnDLhr-34" edge="1">
                    <mxGeometry relative="1" as="geometry">
                        <mxPoint x="830" y="1050" as="targetPoint"/>
                        <Array as="points">
                            <mxPoint x="830" y="1040"/>
                            <mxPoint x="830" y="1040"/>
                        </Array>
                    </mxGeometry>
                </mxCell>
                <mxCell id="8LTQt0oXINz2_zXnDLhr-29" value="Hedging Reactor 2 - Perp futures" style="rounded=1;whiteSpace=wrap;html=1;" parent="1" vertex="1">
                    <mxGeometry x="765" y="950" width="260" height="60" as="geometry"/>
                </mxCell>
                <mxCell id="8LTQt0oXINz2_zXnDLhr-30" value="hedge(delta)" style="edgeStyle=orthogonalEdgeStyle;rounded=0;orthogonalLoop=1;jettySize=auto;html=1;exitX=0.25;exitY=1;exitDx=0;exitDy=0;" parent="1" source="8LTQt0oXINz2_zXnDLhr-31" edge="1">
                    <mxGeometry relative="1" as="geometry">
                        <mxPoint x="765" y="950" as="targetPoint"/>
                        <Array as="points">
                            <mxPoint x="755" y="870"/>
                            <mxPoint x="755" y="950"/>
                        </Array>
                    </mxGeometry>
                </mxCell>
                <mxCell id="8LTQt0oXINz2_zXnDLhr-31" value="Dynamic Hedging Vault (Liquidity Pool)" style="rounded=1;whiteSpace=wrap;html=1;" parent="1" vertex="1">
                    <mxGeometry x="835" y="810" width="120" height="60" as="geometry"/>
                </mxCell>
                <mxCell id="8LTQt0oXINz2_zXnDLhr-32" value="withdraw(amount)" style="edgeStyle=orthogonalEdgeStyle;rounded=0;orthogonalLoop=1;jettySize=auto;html=1;exitX=0.25;exitY=1;exitDx=0;exitDy=0;entryX=1;entryY=0;entryDx=0;entryDy=0;" parent="1" target="8LTQt0oXINz2_zXnDLhr-29" edge="1">
                    <mxGeometry relative="1" as="geometry">
                        <mxPoint x="934.5" y="870" as="sourcePoint"/>
                        <mxPoint x="934.5" y="950" as="targetPoint"/>
                        <Array as="points">
                            <mxPoint x="1035" y="870"/>
                            <mxPoint x="1035" y="950"/>
                        </Array>
                    </mxGeometry>
                </mxCell>
                <mxCell id="8LTQt0oXINz2_zXnDLhr-33" value="update()&lt;br&gt;updates the vault with the &lt;br&gt;hedging reactor's holdings and delta&amp;nbsp;&lt;br&gt;this can also act as a request for collateral &lt;br&gt;from the hedging reactor to the vault" style="endArrow=classic;startArrow=classic;html=1;rounded=0;entryX=0.5;entryY=1;entryDx=0;entryDy=0;exitX=0.5;exitY=0;exitDx=0;exitDy=0;" parent="1" source="8LTQt0oXINz2_zXnDLhr-29" target="8LTQt0oXINz2_zXnDLhr-31" edge="1">
                    <mxGeometry width="50" height="50" relative="1" as="geometry">
                        <mxPoint x="795" y="820" as="sourcePoint"/>
                        <mxPoint x="845" y="770" as="targetPoint"/>
                        <mxPoint as="offset"/>
                    </mxGeometry>
                </mxCell>
                <mxCell id="8LTQt0oXINz2_zXnDLhr-34" value="Perp futures (e.g. GMX, MCDEX, PERP, Hubble, RAGE)" style="rounded=1;whiteSpace=wrap;html=1;" parent="1" vertex="1">
                    <mxGeometry x="765" y="1070" width="260" height="60" as="geometry"/>
                </mxCell>
                <mxCell id="8LTQt0oXINz2_zXnDLhr-35" value="Variables to manage include position size, the health factor of the perp&amp;nbsp;&lt;br&gt;(assume 1x leverage)&amp;nbsp;" style="text;html=1;align=center;verticalAlign=middle;resizable=0;points=[];autosize=1;strokeColor=none;fillColor=none;" parent="1" vertex="1">
                    <mxGeometry x="700" y="1140" width="390" height="30" as="geometry"/>
                </mxCell>
                <mxCell id="8LTQt0oXINz2_zXnDLhr-36" value="hedge is called by the vault and tells&lt;br&gt;how much to hedge, the engine will then&lt;br&gt;take some collateral to do the hedge.&lt;br&gt;The dynamic hedging vault is tracking&lt;br&gt;reactorDebt and reactorDelta of the reactor" style="text;html=1;align=center;verticalAlign=middle;resizable=0;points=[];autosize=1;strokeColor=none;fillColor=none;" parent="1" vertex="1">
                    <mxGeometry x="505" y="820" width="240" height="80" as="geometry"/>
                </mxCell>
                <mxCell id="hTP4HF4vQB6CU6d6XZyB-1" value="If going short&lt;br&gt;Use the opyn short helper&lt;br&gt;and open a short" style="edgeStyle=orthogonalEdgeStyle;rounded=0;orthogonalLoop=1;jettySize=auto;html=1;exitX=0.75;exitY=1;exitDx=0;exitDy=0;entryX=0.75;entryY=0;entryDx=0;entryDy=0;" parent="1" source="8LTQt0oXINz2_zXnDLhr-16" target="8LTQt0oXINz2_zXnDLhr-21" edge="1">
                    <mxGeometry relative="1" as="geometry">
                        <mxPoint x="980" y="1070" as="targetPoint"/>
                        <mxPoint x="980" y="1010" as="sourcePoint"/>
                        <Array as="points">
                            <mxPoint x="210" y="1020"/>
                            <mxPoint x="210" y="1020"/>
                        </Array>
                        <mxPoint as="offset"/>
                    </mxGeometry>
                </mxCell>
                <mxCell id="hTP4HF4vQB6CU6d6XZyB-2" value="If going long&lt;br&gt;Swap ETH for SQUEETH on&lt;br&gt;uni v3" style="edgeStyle=orthogonalEdgeStyle;rounded=0;orthogonalLoop=1;jettySize=auto;html=1;exitX=0.169;exitY=1.033;exitDx=0;exitDy=0;entryX=0.158;entryY=0;entryDx=0;entryDy=0;exitPerimeter=0;entryPerimeter=0;" parent="1" source="8LTQt0oXINz2_zXnDLhr-16" target="8LTQt0oXINz2_zXnDLhr-21" edge="1">
                    <mxGeometry x="0.0138" relative="1" as="geometry">
                        <mxPoint x="840" y="1080" as="targetPoint"/>
                        <mxPoint x="840" y="1020" as="sourcePoint"/>
                        <Array as="points">
                            <mxPoint x="56" y="1012"/>
                        </Array>
                        <mxPoint as="offset"/>
                    </mxGeometry>
                </mxCell>
                <mxCell id="hTP4HF4vQB6CU6d6XZyB-4" value="If going short&lt;br&gt;purchase short ETH perp" style="edgeStyle=orthogonalEdgeStyle;rounded=0;orthogonalLoop=1;jettySize=auto;html=1;exitX=0.75;exitY=1;exitDx=0;exitDy=0;entryX=0.75;entryY=0;entryDx=0;entryDy=0;" parent="1" source="8LTQt0oXINz2_zXnDLhr-29" target="8LTQt0oXINz2_zXnDLhr-34" edge="1">
                    <mxGeometry relative="1" as="geometry">
                        <mxPoint x="840" y="1080" as="targetPoint"/>
                        <mxPoint x="840" y="1020" as="sourcePoint"/>
                        <Array as="points">
                            <mxPoint x="960" y="1030"/>
                            <mxPoint x="960" y="1030"/>
                        </Array>
                        <mxPoint as="offset"/>
                    </mxGeometry>
                </mxCell>
                <mxCell id="hTP4HF4vQB6CU6d6XZyB-5" value="&lt;b&gt;&lt;font style=&quot;font-size: 21px&quot;&gt;Diagram E&lt;/font&gt;&lt;/b&gt;" style="text;html=1;align=center;verticalAlign=middle;resizable=0;points=[];autosize=1;strokeColor=none;fillColor=none;strokeWidth=2;" parent="1" vertex="1">
                    <mxGeometry x="835" y="1280" width="120" height="20" as="geometry"/>
                </mxCell>
                <mxCell id="hTP4HF4vQB6CU6d6XZyB-6" value="if going short &lt;br&gt;purchase put or&lt;br&gt;sell already purchased call" style="edgeStyle=orthogonalEdgeStyle;rounded=0;orthogonalLoop=1;jettySize=auto;html=1;exitX=0.75;exitY=1;exitDx=0;exitDy=0;entryX=0.75;entryY=0;entryDx=0;entryDy=0;" parent="1" source="hTP4HF4vQB6CU6d6XZyB-7" target="hTP4HF4vQB6CU6d6XZyB-12" edge="1">
                    <mxGeometry relative="1" as="geometry">
                        <mxPoint x="830" y="1580" as="targetPoint"/>
                    </mxGeometry>
                </mxCell>
                <mxCell id="hTP4HF4vQB6CU6d6XZyB-15" value="if going long,&lt;br&gt;purchase call or&amp;nbsp;&lt;br&gt;sell already purchased put&amp;nbsp;" style="edgeStyle=orthogonalEdgeStyle;rounded=0;orthogonalLoop=1;jettySize=auto;html=1;exitX=0.25;exitY=1;exitDx=0;exitDy=0;entryX=0.25;entryY=0;entryDx=0;entryDy=0;" parent="1" source="hTP4HF4vQB6CU6d6XZyB-7" target="hTP4HF4vQB6CU6d6XZyB-12" edge="1">
                    <mxGeometry relative="1" as="geometry"/>
                </mxCell>
                <mxCell id="hTP4HF4vQB6CU6d6XZyB-7" value="Hedging Reactor 3 - Options purchasing" style="rounded=1;whiteSpace=wrap;html=1;" parent="1" vertex="1">
                    <mxGeometry x="765" y="1480" width="260" height="60" as="geometry"/>
                </mxCell>
                <mxCell id="hTP4HF4vQB6CU6d6XZyB-8" value="hedge(delta)" style="edgeStyle=orthogonalEdgeStyle;rounded=0;orthogonalLoop=1;jettySize=auto;html=1;exitX=0.25;exitY=1;exitDx=0;exitDy=0;" parent="1" source="hTP4HF4vQB6CU6d6XZyB-9" edge="1">
                    <mxGeometry relative="1" as="geometry">
                        <mxPoint x="765" y="1480" as="targetPoint"/>
                        <Array as="points">
                            <mxPoint x="755" y="1400"/>
                            <mxPoint x="755" y="1480"/>
                        </Array>
                    </mxGeometry>
                </mxCell>
                <mxCell id="hTP4HF4vQB6CU6d6XZyB-9" value="Dynamic Hedging Vault (Liquidity Pool)" style="rounded=1;whiteSpace=wrap;html=1;" parent="1" vertex="1">
                    <mxGeometry x="835" y="1340" width="120" height="60" as="geometry"/>
                </mxCell>
                <mxCell id="hTP4HF4vQB6CU6d6XZyB-10" value="withdraw(amount)" style="edgeStyle=orthogonalEdgeStyle;rounded=0;orthogonalLoop=1;jettySize=auto;html=1;exitX=0.25;exitY=1;exitDx=0;exitDy=0;entryX=1;entryY=0;entryDx=0;entryDy=0;" parent="1" target="hTP4HF4vQB6CU6d6XZyB-7" edge="1">
                    <mxGeometry relative="1" as="geometry">
                        <mxPoint x="934.5" y="1400" as="sourcePoint"/>
                        <mxPoint x="934.5" y="1480" as="targetPoint"/>
                        <Array as="points">
                            <mxPoint x="1035" y="1400"/>
                            <mxPoint x="1035" y="1480"/>
                        </Array>
                    </mxGeometry>
                </mxCell>
                <mxCell id="hTP4HF4vQB6CU6d6XZyB-11" value="update()&lt;br&gt;updates the vault with the &lt;br&gt;hedging reactor's holdings and delta&amp;nbsp;&lt;br&gt;this can also act as a request for collateral &lt;br&gt;from the hedging reactor to the vault" style="endArrow=classic;startArrow=classic;html=1;rounded=0;entryX=0.5;entryY=1;entryDx=0;entryDy=0;exitX=0.5;exitY=0;exitDx=0;exitDy=0;" parent="1" source="hTP4HF4vQB6CU6d6XZyB-7" target="hTP4HF4vQB6CU6d6XZyB-9" edge="1">
                    <mxGeometry y="10" width="50" height="50" relative="1" as="geometry">
                        <mxPoint x="795" y="1350" as="sourcePoint"/>
                        <mxPoint x="845" y="1300" as="targetPoint"/>
                        <mxPoint as="offset"/>
                    </mxGeometry>
                </mxCell>
                <mxCell id="hTP4HF4vQB6CU6d6XZyB-12" value="Options Protocol (e.g. DPX, Premia, Hegic)" style="rounded=1;whiteSpace=wrap;html=1;" parent="1" vertex="1">
                    <mxGeometry x="765" y="1600" width="260" height="60" as="geometry"/>
                </mxCell>
                <mxCell id="hTP4HF4vQB6CU6d6XZyB-14" value="hedge is called by the vault and tells&lt;br&gt;how much to hedge, the engine will then&lt;br&gt;take some collateral to do the hedge.&lt;br&gt;The dynamic hedging vault is tracking&lt;br&gt;reactorDebt and reactorDelta of the reactor" style="text;html=1;align=center;verticalAlign=middle;resizable=0;points=[];autosize=1;strokeColor=none;fillColor=none;" parent="1" vertex="1">
                    <mxGeometry x="505" y="1350" width="240" height="80" as="geometry"/>
                </mxCell>
                <mxCell id="hTP4HF4vQB6CU6d6XZyB-16" value="Variables to manage here include delta, the options held by the pool, the amount required to purchase new options,&lt;br&gt;there may need to be multiple versions, one that prices options and one that takes in the price of the option from the other options protocol&lt;br&gt;(This strategy may need to be strategist managed)" style="text;html=1;align=center;verticalAlign=middle;resizable=0;points=[];autosize=1;strokeColor=none;fillColor=none;" parent="1" vertex="1">
                    <mxGeometry x="520" y="1660" width="750" height="50" as="geometry"/>
                </mxCell>
                <mxCell id="GXLuNJUXHDOTcXBmYJmw-13" value="&lt;b&gt;&lt;font style=&quot;font-size: 21px&quot;&gt;Diagram F&lt;/font&gt;&lt;/b&gt;" style="text;html=1;align=center;verticalAlign=middle;resizable=0;points=[];autosize=1;strokeColor=none;fillColor=none;strokeWidth=2;" parent="1" vertex="1">
                    <mxGeometry x="1520" y="750" width="120" height="20" as="geometry"/>
                </mxCell>
                <mxCell id="GXLuNJUXHDOTcXBmYJmw-14" value="Hedging Reactor 4 - ETH swap" style="rounded=1;whiteSpace=wrap;html=1;" parent="1" vertex="1">
                    <mxGeometry x="1450" y="950" width="260" height="60" as="geometry"/>
                </mxCell>
                <mxCell id="GXLuNJUXHDOTcXBmYJmw-15" value="hedge(delta)" style="edgeStyle=orthogonalEdgeStyle;rounded=0;orthogonalLoop=1;jettySize=auto;html=1;exitX=0.25;exitY=1;exitDx=0;exitDy=0;" parent="1" source="GXLuNJUXHDOTcXBmYJmw-16" edge="1">
                    <mxGeometry relative="1" as="geometry">
                        <mxPoint x="1450" y="950" as="targetPoint"/>
                        <Array as="points">
                            <mxPoint x="1440" y="870"/>
                            <mxPoint x="1440" y="950"/>
                        </Array>
                    </mxGeometry>
                </mxCell>
                <mxCell id="GXLuNJUXHDOTcXBmYJmw-16" value="Dynamic Hedging Vault (Liquidity Pool)" style="rounded=1;whiteSpace=wrap;html=1;" parent="1" vertex="1">
                    <mxGeometry x="1520" y="810" width="120" height="60" as="geometry"/>
                </mxCell>
                <mxCell id="GXLuNJUXHDOTcXBmYJmw-17" value="withdraw(amount)" style="edgeStyle=orthogonalEdgeStyle;rounded=0;orthogonalLoop=1;jettySize=auto;html=1;exitX=0.25;exitY=1;exitDx=0;exitDy=0;entryX=1;entryY=0;entryDx=0;entryDy=0;" parent="1" target="GXLuNJUXHDOTcXBmYJmw-14" edge="1">
                    <mxGeometry relative="1" as="geometry">
                        <mxPoint x="1619.5" y="870" as="sourcePoint"/>
                        <mxPoint x="1619.5" y="950" as="targetPoint"/>
                        <Array as="points">
                            <mxPoint x="1720" y="870"/>
                            <mxPoint x="1720" y="950"/>
                        </Array>
                    </mxGeometry>
                </mxCell>
                <mxCell id="GXLuNJUXHDOTcXBmYJmw-18" value="update()&lt;br&gt;updates the vault with the &lt;br&gt;hedging reactor's holdings and delta&amp;nbsp;&lt;br&gt;this can also act as a request for collateral &lt;br&gt;from the hedging reactor to the vault" style="endArrow=classic;startArrow=classic;html=1;rounded=0;entryX=0.5;entryY=1;entryDx=0;entryDy=0;exitX=0.5;exitY=0;exitDx=0;exitDy=0;" parent="1" source="GXLuNJUXHDOTcXBmYJmw-14" target="GXLuNJUXHDOTcXBmYJmw-16" edge="1">
                    <mxGeometry width="50" height="50" relative="1" as="geometry">
                        <mxPoint x="1480" y="820" as="sourcePoint"/>
                        <mxPoint x="1530" y="770" as="targetPoint"/>
                        <mxPoint as="offset"/>
                    </mxGeometry>
                </mxCell>
                <mxCell id="GXLuNJUXHDOTcXBmYJmw-19" value="Uniswap v3 ETH-USD" style="rounded=1;whiteSpace=wrap;html=1;" parent="1" vertex="1">
                    <mxGeometry x="1450" y="1070" width="260" height="60" as="geometry"/>
                </mxCell>
                <mxCell id="GXLuNJUXHDOTcXBmYJmw-20" value="Swapping usd to eth&amp;nbsp;" style="text;html=1;align=center;verticalAlign=middle;resizable=0;points=[];autosize=1;strokeColor=none;fillColor=none;" parent="1" vertex="1">
                    <mxGeometry x="1515" y="1145" width="130" height="20" as="geometry"/>
                </mxCell>
                <mxCell id="GXLuNJUXHDOTcXBmYJmw-21" value="hedge is called by the vault and tells&lt;br&gt;how much to hedge, the engine will then&lt;br&gt;take some collateral to do the hedge.&lt;br&gt;The dynamic hedging vault is tracking&lt;br&gt;reactorDebt and reactorDelta of the reactor" style="text;html=1;align=center;verticalAlign=middle;resizable=0;points=[];autosize=1;strokeColor=none;fillColor=none;" parent="1" vertex="1">
                    <mxGeometry x="1190" y="820" width="240" height="80" as="geometry"/>
                </mxCell>
                <mxCell id="GXLuNJUXHDOTcXBmYJmw-22" value="If going short&lt;br&gt;Swap ETH to USDC" style="edgeStyle=orthogonalEdgeStyle;rounded=0;orthogonalLoop=1;jettySize=auto;html=1;exitX=0.75;exitY=1;exitDx=0;exitDy=0;entryX=0.75;entryY=0;entryDx=0;entryDy=0;" parent="1" source="GXLuNJUXHDOTcXBmYJmw-14" target="GXLuNJUXHDOTcXBmYJmw-19" edge="1">
                    <mxGeometry relative="1" as="geometry">
                        <mxPoint x="2415" y="1070" as="targetPoint"/>
                        <mxPoint x="2415" y="1010" as="sourcePoint"/>
                        <Array as="points">
                            <mxPoint x="1645" y="1020"/>
                            <mxPoint x="1645" y="1020"/>
                        </Array>
                        <mxPoint as="offset"/>
                    </mxGeometry>
                </mxCell>
                <mxCell id="GXLuNJUXHDOTcXBmYJmw-23" value="If going long&lt;br&gt;Swap USDC to ETH" style="edgeStyle=orthogonalEdgeStyle;rounded=0;orthogonalLoop=1;jettySize=auto;html=1;exitX=0.169;exitY=1.033;exitDx=0;exitDy=0;entryX=0.158;entryY=0;entryDx=0;entryDy=0;exitPerimeter=0;entryPerimeter=0;" parent="1" source="GXLuNJUXHDOTcXBmYJmw-14" target="GXLuNJUXHDOTcXBmYJmw-19" edge="1">
                    <mxGeometry x="0.0138" relative="1" as="geometry">
                        <mxPoint x="2275" y="1080" as="targetPoint"/>
                        <mxPoint x="2275" y="1020" as="sourcePoint"/>
                        <Array as="points">
                            <mxPoint x="1491" y="1012"/>
                        </Array>
                        <mxPoint as="offset"/>
                    </mxGeometry>
                </mxCell>
                <mxCell id="fGb8RV4LIUpfqrv7IjaU-17" value="&lt;font color=&quot;#ffffff&quot;&gt;checkVaultHealth&lt;br&gt;adjustCollateral&lt;br&gt;withdrawExcessCollat&lt;/font&gt;" style="edgeStyle=orthogonalEdgeStyle;rounded=0;orthogonalLoop=1;jettySize=auto;html=1;exitX=1;exitY=0.5;exitDx=0;exitDy=0;entryX=0;entryY=0.5;entryDx=0;entryDy=0;fontColor=#000000;" parent="1" source="fGb8RV4LIUpfqrv7IjaU-2" target="1642eGbjVczJc0algu5P-5" edge="1">
                    <mxGeometry relative="1" as="geometry"/>
                </mxCell>
                <mxCell id="fGb8RV4LIUpfqrv7IjaU-2" value="Keeper" style="ellipse;whiteSpace=wrap;html=1;aspect=fixed;fillColor=#008a00;fontColor=#ffffff;strokeColor=#005700;" parent="1" vertex="1">
                    <mxGeometry y="495" width="80" height="80" as="geometry"/>
                </mxCell>
                <mxCell id="fGb8RV4LIUpfqrv7IjaU-4" value="VolatilityFeed" style="rounded=1;whiteSpace=wrap;html=1;" parent="1" vertex="1">
                    <mxGeometry x="205" y="190" width="120" height="60" as="geometry"/>
                </mxCell>
                <mxCell id="fGb8RV4LIUpfqrv7IjaU-5" value="hedgeDelta&lt;br&gt;withdraw" style="edgeStyle=orthogonalEdgeStyle;rounded=0;orthogonalLoop=1;jettySize=auto;html=1;exitX=0.5;exitY=1;exitDx=0;exitDy=0;" parent="1" source="1642eGbjVczJc0algu5P-4" edge="1">
                    <mxGeometry relative="1" as="geometry">
                        <mxPoint x="425" y="420" as="sourcePoint"/>
                        <mxPoint x="570" y="490" as="targetPoint"/>
                        <Array as="points">
                            <mxPoint x="420" y="440"/>
                            <mxPoint x="570" y="440"/>
                            <mxPoint x="570" y="490"/>
                        </Array>
                    </mxGeometry>
                </mxCell>
                <mxCell id="fGb8RV4LIUpfqrv7IjaU-6" value="Hedging Reactor 5 Refer to Diagram F&lt;br&gt;e.g. Uniswap v3" style="rounded=1;whiteSpace=wrap;html=1;" parent="1" vertex="1">
                    <mxGeometry x="510" y="490" width="130" height="90" as="geometry"/>
                </mxCell>
                <mxCell id="hZv7sSVvZLK3GC8TUpPU-2" value="handlerIssue&lt;br&gt;handlerWriteOption&lt;br&gt;handlerBuybackOption" style="edgeStyle=orthogonalEdgeStyle;rounded=0;orthogonalLoop=1;jettySize=auto;html=1;exitX=0.5;exitY=1;exitDx=0;exitDy=0;entryX=0.75;entryY=0;entryDx=0;entryDy=0;" parent="1" source="hZv7sSVvZLK3GC8TUpPU-1" target="1642eGbjVczJc0algu5P-4" edge="1">
                    <mxGeometry x="-0.5556" relative="1" as="geometry">
                        <Array as="points">
                            <mxPoint x="540" y="330"/>
                            <mxPoint x="450" y="330"/>
                        </Array>
                        <mxPoint as="offset"/>
                    </mxGeometry>
                </mxCell>
                <mxCell id="10" value="updateStores()" style="edgeStyle=none;html=1;exitX=1;exitY=1;exitDx=0;exitDy=0;entryX=0.5;entryY=0;entryDx=0;entryDy=0;" parent="1" source="hZv7sSVvZLK3GC8TUpPU-1" target="x4TnTmUyTVXbQRC7-qxB-2" edge="1">
                    <mxGeometry relative="1" as="geometry"/>
                </mxCell>
                <mxCell id="hZv7sSVvZLK3GC8TUpPU-1" value="Alpha Option Handler" style="rounded=1;whiteSpace=wrap;html=1;" parent="1" vertex="1">
                    <mxGeometry x="480" y="210" width="120" height="60" as="geometry"/>
                </mxCell>
                <mxCell id="x4TnTmUyTVXbQRC7-qxB-2" value="PortfolioValuesFeed" style="rounded=1;whiteSpace=wrap;html=1;" parent="1" vertex="1">
                    <mxGeometry x="665" y="360" width="120" height="60" as="geometry"/>
                </mxCell>
                <mxCell id="4" value="createOrder&lt;br&gt;createStrangle" style="edgeStyle=none;html=1;entryX=1;entryY=0.5;entryDx=0;entryDy=0;fontColor=#FFFFFF;startArrow=none;startFill=0;" parent="1" source="3" target="hZv7sSVvZLK3GC8TUpPU-1" edge="1">
                    <mxGeometry relative="1" as="geometry"/>
                </mxCell>
                <mxCell id="3" value="Manager" style="ellipse;whiteSpace=wrap;html=1;aspect=fixed;fillColor=#0050ef;fontColor=#ffffff;strokeColor=#001DBC;" parent="1" vertex="1">
                    <mxGeometry x="642" y="41" width="80" height="80" as="geometry"/>
                </mxCell>
                <mxCell id="6" value="sync&lt;br&gt;update" style="edgeStyle=none;html=1;exitX=0.5;exitY=0;exitDx=0;exitDy=0;fontColor=#FFFFFF;startArrow=none;startFill=0;endArrow=classic;endFill=0;entryX=0.5;entryY=1;entryDx=0;entryDy=0;" parent="1" source="5" target="47OiKXawKAYpL66iiN4a-4" edge="1">
                    <mxGeometry relative="1" as="geometry">
                        <mxPoint x="575.1176470588234" y="589.9999999999998" as="targetPoint"/>
                    </mxGeometry>
                </mxCell>
                <mxCell id="5" value="Keeper" style="ellipse;whiteSpace=wrap;html=1;aspect=fixed;fillColor=#008a00;fontColor=#ffffff;strokeColor=#005700;" parent="1" vertex="1">
                    <mxGeometry x="380" y="630" width="80" height="80" as="geometry"/>
                </mxCell>
                <mxCell id="7" value="fulfill&lt;br&gt;syncLooper&lt;br&gt;cleanLiquidatedSeries" style="edgeStyle=none;html=1;exitX=0;exitY=0.5;exitDx=0;exitDy=0;fontColor=#FFFFFF;startArrow=none;startFill=0;endArrow=classic;endFill=0;entryX=1;entryY=0.5;entryDx=0;entryDy=0;" parent="1" source="8" target="x4TnTmUyTVXbQRC7-qxB-2" edge="1">
                    <mxGeometry relative="1" as="geometry">
                        <mxPoint x="900" y="280.0000000000002" as="targetPoint"/>
                    </mxGeometry>
                </mxCell>
                <mxCell id="9" value="" style="edgeStyle=none;html=1;" parent="1" source="8" target="x4TnTmUyTVXbQRC7-qxB-2" edge="1">
                    <mxGeometry relative="1" as="geometry"/>
                </mxCell>
                <mxCell id="8" value="Keeper" style="ellipse;whiteSpace=wrap;html=1;aspect=fixed;fillColor=#008a00;fontColor=#ffffff;strokeColor=#005700;" parent="1" vertex="1">
                    <mxGeometry x="912" y="352" width="80" height="80" as="geometry"/>
                </mxCell>
                <mxCell id="12" value="Gamma Hedging Reactor&amp;nbsp;&lt;br&gt;" style="rounded=1;whiteSpace=wrap;html=1;" vertex="1" parent="1">
                    <mxGeometry x="658" y="492" width="130" height="90" as="geometry"/>
                </mxCell>
                <mxCell id="13" value="" style="edgeStyle=orthogonalEdgeStyle;rounded=0;orthogonalLoop=1;jettySize=auto;html=1;exitX=0.5;exitY=1;exitDx=0;exitDy=0;entryX=0.5;entryY=0;entryDx=0;entryDy=0;" edge="1" parent="1" target="12">
                    <mxGeometry relative="1" as="geometry">
                        <mxPoint x="420" y="420" as="sourcePoint"/>
                        <mxPoint x="570" y="490" as="targetPoint"/>
                        <Array as="points">
                            <mxPoint x="420" y="440"/>
                            <mxPoint x="723" y="440"/>
                        </Array>
                    </mxGeometry>
                </mxCell>
            </root>
        </mxGraphModel>
    </diagram>
</mxfile>